<svg id="svg" xmlns="http://www.w3.org/2000/svg" xmlns:xlink="http://www.w3.org/1999/xlink" width="400" height="400" viewBox="0, 0, 400,400"><g id="svgg"><path id="path0" d="M248.730 13.086 C 245.344 15.001,14.573 246.703,13.002 249.766 C 9.777 256.049,11.055 258.200,28.372 275.646 C 47.738 295.156,49.857 296.171,58.632 290.135 C 90.127 268.470,125.627 303.120,104.791 335.187 C 98.286 345.197,98.769 346.164,121.628 368.908 C 141.773 388.953,144.281 390.531,150.625 387.160 C 155.784 384.419,387.380 151.287,387.918 148.293 C 388.894 142.868,387.606 141.106,369.339 122.885 C 347.999 101.599,348.448 101.826,337.950 107.041 C 307.585 122.126,278.043 93.110,292.919 62.810 C 298.452 51.540,298.733 52.105,276.810 30.356 C 256.447 10.155,255.233 9.408,248.730 13.086 M263.048 47.070 L 271.774 55.859 269.751 61.719 C 259.646 90.992,278.467 124.555,308.984 131.684 C 317.228 133.610,332.215 132.932,339.195 130.317 L 344.405 128.365 353.250 137.235 L 362.095 146.105 336.125 172.075 L 310.155 198.045 256.057 143.946 L 201.958 89.847 227.733 64.064 C 241.908 49.884,253.690 38.281,253.915 38.281 C 254.139 38.281,258.249 42.236,263.048 47.070 M241.016 159.376 L 294.919 213.283 220.508 287.694 L 146.097 362.105 136.211 352.219 L 126.325 342.333 128.413 337.377 C 147.402 292.308,101.230 246.243,56.974 266.104 L 52.244 268.227 45.312 261.328 L 38.381 254.429 112.281 179.949 C 152.926 138.985,186.390 105.469,186.647 105.469 C 186.904 105.469,211.370 129.727,241.016 159.376 M182.533 149.241 C 176.372 151.087,173.310 158.432,176.256 164.297 C 177.630 167.031,228.976 219.084,233.906 222.740 C 243.238 229.661,255.803 219.623,250.442 209.532 C 249.825 208.371,236.376 194.502,220.555 178.711 C 189.112 147.328,189.057 147.286,182.533 149.241 M155.078 175.771 C 150.521 178.770,148.905 184.245,151.090 189.283 C 152.959 193.594,209.203 248.933,212.657 249.859 C 220.857 252.057,227.779 245.485,226.210 236.989 C 225.651 233.967,175.995 182.647,167.656 176.474 C 163.894 173.689,158.684 173.398,155.078 175.771 M130.657 200.777 C 125.649 203.830,123.636 210.000,126.117 214.687 C 128.097 218.428,185.325 274.845,187.738 275.436 C 196.972 277.695,204.755 268.431,200.442 260.313 C 198.713 257.059,142.088 200.962,139.598 200.036 C 136.308 198.813,133.495 199.046,130.657 200.777 " stroke-width="1.5" fill="#000000" fill-rule="evenodd"></path></g></svg>