<svg id="svg" xmlns="http://www.w3.org/2000/svg" xmlns:xlink="http://www.w3.org/1999/xlink" width="24" height="24" viewBox="0, 0, 400,400"><g id="svgg"><path id="path0" d="M48.939 1.483 C 43.686 4.945,43.761 4.455,43.755 35.564 L 43.750 63.707 22.227 98.846 L 0.704 133.984 1.009 150.391 C 1.393 171.006,4.018 179.592,13.352 190.765 L 16.406 194.421 16.411 293.500 C 16.417 403.981,15.964 394.805,21.595 398.517 C 25.096 400.826,374.904 400.826,378.405 398.517 C 384.036 394.805,383.583 403.981,383.589 293.500 L 383.594 194.421 386.648 190.765 C 395.982 179.592,398.607 171.006,398.991 150.391 L 399.296 133.984 377.773 98.846 L 356.250 63.707 356.245 35.564 C 356.239 4.455,356.314 4.945,351.061 1.483 C 347.562 -0.824,52.438 -0.824,48.939 1.483 M332.813 39.844 L 332.813 56.250 200.000 56.250 L 67.188 56.250 67.188 39.844 L 67.188 23.438 200.000 23.438 L 332.813 23.438 332.813 39.844 M110.914 80.664 C 110.901 81.201,107.808 91.660,104.041 103.906 L 97.191 126.172 65.783 126.376 C 48.509 126.488,34.375 126.425,34.375 126.236 C 34.375 126.047,40.735 115.496,48.508 102.790 L 62.642 79.688 86.790 79.688 C 105.600 79.688,110.932 79.903,110.914 80.664 M188.281 103.125 L 188.281 126.563 155.416 126.563 C 124.474 126.563,122.576 126.483,122.979 125.195 C 125.252 117.934,136.719 80.195,136.719 79.975 C 136.719 79.817,148.320 79.688,162.500 79.688 L 188.281 79.688 188.281 103.125 M263.281 79.975 C 263.281 80.195,274.748 117.934,277.021 125.195 C 277.424 126.483,275.526 126.563,244.584 126.563 L 211.719 126.563 211.719 103.125 L 211.719 79.688 237.500 79.688 C 251.680 79.688,263.281 79.817,263.281 79.975 M351.492 102.790 C 359.265 115.496,365.625 126.047,365.625 126.236 C 365.625 126.425,351.491 126.488,334.217 126.376 L 302.809 126.172 295.959 103.906 C 292.192 91.660,289.099 81.201,289.086 80.664 C 289.068 79.903,294.400 79.688,313.210 79.688 L 337.358 79.688 351.492 102.790 M94.105 154.883 C 91.981 175.477,78.920 187.891,59.375 187.891 C 39.830 187.891,26.769 175.477,24.645 154.883 L 24.141 150.000 59.375 150.000 L 94.609 150.000 94.105 154.883 M187.855 154.883 C 185.731 175.477,172.670 187.891,153.125 187.891 C 133.580 187.891,120.519 175.477,118.395 154.883 L 117.891 150.000 153.125 150.000 L 188.359 150.000 187.855 154.883 M281.605 154.883 C 279.481 175.477,266.420 187.891,246.875 187.891 C 227.330 187.891,214.269 175.477,212.145 154.883 L 211.641 150.000 246.875 150.000 L 282.109 150.000 281.605 154.883 M375.355 154.883 C 373.231 175.477,360.170 187.891,340.625 187.891 C 321.080 187.891,308.019 175.477,305.895 154.883 L 305.391 150.000 340.625 150.000 L 375.859 150.000 375.355 154.883 M112.868 196.720 C 135.451 218.096,170.838 218.059,193.471 196.635 L 200.000 190.455 206.529 196.635 C 229.205 218.100,264.545 218.100,287.221 196.635 L 293.750 190.455 300.279 196.635 C 314.647 210.235,336.177 215.913,354.883 211.035 L 360.156 209.659 360.156 293.111 L 360.156 376.563 344.531 376.563 L 328.906 376.563 328.901 311.523 C 328.895 239.161,329.263 244.201,323.718 240.545 C 320.249 238.258,228.189 238.258,224.720 240.545 C 219.174 244.201,219.542 239.161,219.536 311.523 L 219.531 376.563 129.688 376.563 L 39.844 376.563 39.844 293.111 L 39.844 209.659 45.117 211.035 C 63.775 215.901,85.500 210.196,99.537 196.745 C 107.136 189.464,105.207 189.467,112.868 196.720 M76.282 240.545 C 70.887 244.102,71.104 242.198,71.104 285.938 C 71.104 329.677,70.887 327.773,76.282 331.330 C 79.754 333.619,179.621 333.619,183.093 331.330 C 188.488 327.773,188.271 329.677,188.271 285.938 C 188.271 242.198,188.488 244.102,183.093 240.545 C 179.621 238.256,79.754 238.256,76.282 240.545 M164.844 285.938 L 164.844 309.375 129.688 309.375 L 94.531 309.375 94.531 285.938 L 94.531 262.500 129.688 262.500 L 164.844 262.500 164.844 285.938 M305.469 319.531 L 305.469 376.563 274.219 376.563 L 242.969 376.563 242.969 354.688 L 242.969 332.813 250.977 332.807 C 262.427 332.800,266.396 329.785,266.396 321.094 C 266.396 312.403,262.427 309.388,250.977 309.380 L 242.969 309.375 242.969 285.938 L 242.969 262.500 274.219 262.500 L 305.469 262.500 305.469 319.531 " stroke="none" fill="#000000" fill-rule="evenodd"></path></g></svg>